<svg width="104" height="16" viewBox="0 0 104 16" fill="none" xmlns="http://www.w3.org/2000/svg">
<path fill-rule="evenodd" clip-rule="evenodd" d="M8 12.402L3.29772 14.4721L3.81347 9.36029L0.391548 5.52786L5.41258 4.43872L8 0L10.5874 4.43872L15.6085 5.52786L12.1865 9.36029L12.7023 14.4721L8 12.402Z" fill="#FE984B"/>
<path fill-rule="evenodd" clip-rule="evenodd" d="M30 12.402L25.2977 14.4721L25.8135 9.36029L22.3915 5.52786L27.4126 4.43872L30 0L32.5874 4.43872L37.6085 5.52786L34.1865 9.36029L34.7023 14.4721L30 12.402Z" fill="#FE984B"/>
<path fill-rule="evenodd" clip-rule="evenodd" d="M52 12.402L47.2977 14.4721L47.8135 9.36029L44.3915 5.52786L49.4126 4.43872L52 0L54.5874 4.43872L59.6085 5.52786L56.1865 9.36029L56.7023 14.4721L52 12.402Z" fill="#FE984B"/>
<path fill-rule="evenodd" clip-rule="evenodd" d="M74 12.402L69.2977 14.4721L69.8135 9.36029L66.3915 5.52786L71.4126 4.43872L74 0L76.5874 4.43872L81.6085 5.52786L78.1865 9.36029L78.7023 14.4721L74 12.402Z" fill="#FE984B"/>
<path fill-rule="evenodd" clip-rule="evenodd" d="M96 12.402L91.2977 14.4721L91.8135 9.36029L88.3915 5.52786L93.4126 4.43872L96 0L98.5874 4.43872L103.608 5.52786L100.187 9.36029L100.702 14.4721L96 12.402Z" fill="#FE984B"/>
<mask id="path-6-inside-1" fill="white">
<path fill-rule="evenodd" clip-rule="evenodd" d="M96 12.402L100.702 14.4721L100.187 9.36029L103.608 5.52786L98.5874 4.43872L96 0V12.402Z"/>
</mask>
<path fill-rule="evenodd" clip-rule="evenodd" d="M96 12.402L100.702 14.4721L100.187 9.36029L103.608 5.52786L98.5874 4.43872L96 0V12.402Z" fill="#E1E1E1"/>
<path d="M100.702 14.4721L100.299 15.3874L101.869 16.0786L101.697 14.3718L100.702 14.4721ZM96 12.402H95V13.0544L95.5971 13.3172L96 12.402ZM100.187 9.36029L99.4406 8.69426L99.1474 9.02265L99.1916 9.46067L100.187 9.36029ZM103.608 5.52786L104.354 6.19389L105.497 4.91425L103.82 4.55059L103.608 5.52786ZM98.5874 4.43872L97.7235 4.94233L97.9452 5.32267L98.3754 5.416L98.5874 4.43872ZM96 0L96.8639 -0.503604L95 -3.70119V0H96ZM101.105 13.5569L96.4029 11.4867L95.5971 13.3172L100.299 15.3874L101.105 13.5569ZM99.1916 9.46067L99.7073 14.5725L101.697 14.3718L101.181 9.2599L99.1916 9.46067ZM102.863 4.86184L99.4406 8.69426L100.932 10.0263L104.354 6.19389L102.863 4.86184ZM98.3754 5.416L103.396 6.50514L103.82 4.55059L98.7994 3.46145L98.3754 5.416ZM95.1361 0.503604L97.7235 4.94233L99.4514 3.93512L96.8639 -0.503604L95.1361 0.503604ZM95 0V12.402H97V0H95Z" fill="#FE984B" mask="url(#path-6-inside-1)"/>
</svg>
