<svg width="20" height="22" viewBox="0 0 20 22" fill="none" xmlns="http://www.w3.org/2000/svg">
<path fill-rule="evenodd" clip-rule="evenodd" d="M0.976889 0.0280685C0.969332 0.0185776 0.961763 0.00907135 0.954 -0.000244141H0.917C0.8829 0.0243073 0.848103 0.0481606 0.813282 0.0720291C0.745988 0.11816 0.678605 0.164352 0.616 0.215755C0.263 0.504757 0.062 0.878757 0.016 1.33475C0.0147273 1.34748 0.0106198 1.36021 0.0065124 1.37293C0.00416529 1.38021 0.00181818 1.38748 0 1.39476V20.6138C0.00181818 20.6232 0.00416529 20.6327 0.0065124 20.6421C0.0106198 20.6587 0.0147273 20.6752 0.016 20.6918C0.079 21.2588 0.368 21.6768 0.848 21.9738C0.919 22.0178 0.959 22.0048 1.016 21.9478C4.644 18.3258 8.273 14.7048 11.903 11.0838C11.9199 11.0676 11.9422 11.0569 11.964 11.0464L11.9787 11.0392C11.9829 11.0371 11.987 11.035 11.991 11.0328L11.979 10.9928C11.9703 10.986 11.9614 10.9794 11.9524 10.9728L11.9522 10.9727L11.9517 10.9724C11.929 10.9556 11.906 10.9387 11.886 10.9188C8.266 7.30975 4.648 3.69976 1.029 0.0887566C1.01039 0.0701485 0.993681 0.04916 0.976907 0.0280914L0.976889 0.0280685ZM13.8687 11.0138C14.8137 11.9408 15.7517 12.8618 16.6947 13.7878C16.7047 13.7821 16.7142 13.7768 16.7232 13.7718C16.7334 13.766 16.7431 13.7606 16.7525 13.7554L16.7897 13.7348C17.0092 13.6102 17.2288 13.4858 17.4484 13.3613C18.0233 13.0356 18.5983 12.7098 19.1707 12.3798C19.2867 12.3128 19.3987 12.2208 19.4827 12.1168C19.8327 11.6808 19.9247 11.1788 19.8087 10.6398C19.7087 10.1788 19.4617 9.82483 19.0367 9.59083C18.67 9.3895 18.3091 9.17764 17.9482 8.96584L17.9481 8.96577C17.7875 8.87147 17.6268 8.77718 17.4657 8.68383C17.2097 8.53583 16.9537 8.38783 16.6947 8.23883L13.8687 11.0138ZM9.68402 15.1819L9.71055 15.1553L12.8958 11.9611C13.7558 12.8211 14.6138 13.6791 15.4768 14.5431C11.4838 16.8361 7.4798 19.1351 3.4748 21.4341C3.4728 21.4321 3.4708 21.4299 3.4688 21.4276C3.4668 21.4254 3.4648 21.4231 3.4628 21.4211C5.53687 19.3405 7.61137 17.2602 9.68402 15.1819ZM9.01501 3.77363C7.16876 2.71351 5.32163 1.65288 3.4745 0.592041C3.4725 0.594543 3.47075 0.597042 3.469 0.599541C3.46725 0.602039 3.4655 0.604538 3.4635 0.60704C6.6115 3.76304 9.7595 6.92004 12.8935 10.064C13.1816 9.77592 13.469 9.48869 13.7558 9.20197C14.3301 8.62791 14.9023 8.05592 15.4745 7.48304C13.3235 6.24757 11.1698 5.01095 9.01501 3.77363Z" fill="white"/>
</svg>
