<svg width="48" height="48" viewBox="0 0 48 48" fill="none" xmlns="http://www.w3.org/2000/svg">
<rect width="48" height="48" rx="14" fill="url(#paint0_linear)"/>
<path opacity="0.4" fill-rule="evenodd" clip-rule="evenodd" d="M28.8838 17.115H25.9408C25.2078 17.12 24.5118 16.794 24.0468 16.228L23.0778 14.888C22.6208 14.317 21.9248 13.989 21.1928 14H19.1128C15.3778 14 13.9998 16.192 13.9998 19.919V23.947C13.9998 24.39 33.9998 24.389 33.9998 23.947V22.776C34.0148 19.049 32.6718 17.115 28.8838 17.115Z" fill="white"/>
<path fill-rule="evenodd" clip-rule="evenodd" d="M18.9667 25.8889C18.5107 25.8889 18.1417 26.2589 18.1417 26.7149C18.1417 27.1699 18.5107 27.5399 18.9667 27.5399H29.0897C29.5357 27.5399 29.9007 27.1859 29.9147 26.7399C29.9277 26.5459 29.8647 26.3549 29.7377 26.2069C29.5917 26.0089 29.3617 25.8909 29.1147 25.8879L18.9667 25.8889ZM28.3668 33.9989C28.2668 33.9989 28.1598 33.9989 28.0578 33.9909H19.9308C19.8308 33.9959 19.7308 33.9989 19.6238 33.9989C18.1178 33.9999 16.6668 33.4369 15.5558 32.4209C15.2978 32.1539 15.0738 31.8559 14.8888 31.5339C14.4838 30.8669 14.2178 30.1239 14.1068 29.3509C14.0358 28.9139 13.9998 28.4719 13.9998 28.0289V22.7759C13.9998 22.3369 14.0238 21.8979 14.0708 21.4619C14.0808 21.3859 14.0958 21.3109 14.1108 21.2379C14.1398 21.1169 14.1558 20.9929 14.1598 20.8679C14.2498 20.3419 14.4148 19.8309 14.6488 19.3509C15.3528 17.8459 16.8078 17.1139 19.0948 17.1139H28.8748C29.0078 17.1039 29.1438 17.0979 29.2748 17.0979C30.4448 17.0999 31.5798 17.4929 32.4998 18.2149C32.6188 18.3149 32.7288 18.4249 32.8288 18.5439C33.1498 18.9179 33.3968 19.3479 33.5578 19.8129C33.8798 20.7669 34.0288 21.7699 33.9998 22.7759V28.0289C33.9978 28.4719 33.9648 28.9129 33.8998 29.3509C33.7798 30.1239 33.5078 30.8659 33.0998 31.5339C32.9128 31.8569 32.6858 32.1549 32.4238 32.4209C31.3178 33.4379 29.8698 34.0009 28.3668 33.9989Z" fill="white"/>
<defs>
<linearGradient id="paint0_linear" x1="0" y1="48" x2="48" y2="48" gradientUnits="userSpaceOnUse">
<stop stop-color="#BF02FE"/>
<stop offset="1" stop-color="#4942C4"/>
</linearGradient>
</defs>
</svg>
