<svg width="48" height="48" viewBox="0 0 48 48" fill="none" xmlns="http://www.w3.org/2000/svg">
<rect width="48" height="48" rx="14" fill="url(#paint0_linear)"/>
<path fill-rule="evenodd" clip-rule="evenodd" d="M24 33.9998C29.5228 33.9998 34 29.5226 34 23.9998C34 18.4769 29.5228 13.9998 24 13.9998C18.4772 13.9998 14 18.4769 14 23.9998C14 29.5226 18.4772 33.9998 24 33.9998ZM22.1957 26.9957C22.3597 27.1607 22.5827 27.2517 22.8147 27.2517V27.2477C23.0457 27.2487 23.2687 27.1567 23.4327 26.9917L28.1777 22.2467C28.4987 21.9097 28.4997 21.3807 28.1787 21.0428C27.8467 20.6917 27.2937 20.6767 26.9427 21.0087L22.8147 25.1367L21.0577 23.3807C20.7157 23.0397 20.1627 23.0407 19.8207 23.3828C19.4797 23.7247 19.4797 24.2787 19.8227 24.6198L22.1957 26.9957Z" fill="white"/>
<defs>
<linearGradient id="paint0_linear" x1="0" y1="48" x2="48" y2="48" gradientUnits="userSpaceOnUse">
<stop stop-color="#BF02FE"/>
<stop offset="1" stop-color="#4942C4"/>
</linearGradient>
</defs>
</svg>
