<svg width="48" height="48" viewBox="0 0 48 48" fill="none" xmlns="http://www.w3.org/2000/svg">
<rect width="48" height="48" rx="14" fill="url(#paint0_linear)"/>
<path fill-rule="evenodd" clip-rule="evenodd" d="M25.2309 28.2586L25.2555 28.2341L24.5467 27.525L25.2606 28.225L28.1696 25.257L28.2829 25.13C28.8494 24.4315 28.8116 23.4059 28.1695 22.7509L28.0449 22.6353C27.4012 22.0929 26.459 22.0832 25.8044 22.6127L25.7737 22.639L25.7741 18.7842H29.5542C32.0482 18.8272 34.0362 20.8812 34.0002 23.3752V28.4082C34.0342 30.8942 32.0512 32.9412 29.5652 32.9842H18.4492C15.9552 32.9412 13.9662 30.8902 14.0002 28.3972V23.3652C13.9642 20.8762 15.9502 18.8272 18.4392 18.7842H22.2341L22.2337 22.643L22.0944 22.5354C21.4601 22.0956 20.5968 22.1203 19.9861 22.6156L19.8657 22.722L19.7593 22.8414C19.1542 23.5713 19.19 24.6019 19.8344 25.2591L22.7432 28.227L22.8669 28.3424C23.5487 28.9206 24.5751 28.897 25.2309 28.2586Z" fill="white"/>
<path fill-rule="evenodd" clip-rule="evenodd" d="M24.5465 27.5249L27.4555 24.5569C27.7565 24.2499 27.7565 23.7579 27.4555 23.4509C27.1605 23.1499 26.6785 23.1449 26.3775 23.4399C26.3745 23.4429 26.3705 23.4469 26.3665 23.4509L24.7745 25.0759V14.7699C24.7745 14.3449 24.4295 13.9999 24.0035 13.9999C23.5785 13.9999 23.2345 14.3449 23.2345 14.7699V25.0789L21.6375 23.4529C21.3435 23.1519 20.8605 23.1469 20.5605 23.4419L20.5485 23.4529C20.2475 23.7599 20.2475 24.2519 20.5485 24.5589L23.4575 27.5269C23.7505 27.8279 24.2325 27.8349 24.5335 27.5419C24.5385 27.5369 24.5435 27.5319 24.5485 27.5269" fill="white"/>
<defs>
<linearGradient id="paint0_linear" x1="0" y1="48" x2="48" y2="48" gradientUnits="userSpaceOnUse">
<stop stop-color="#BF02FE"/>
<stop offset="1" stop-color="#4942C4"/>
</linearGradient>
</defs>
</svg>
