<svg xmlns="http://www.w3.org/2000/svg" viewBox="0 0 108 108"><defs><style>.a{fill:#5940f1;}</style></defs><title>price</title><path class="a" d="M96.9,100.7h-.1l-38.7-1a3.9,3.9,0,0,1-2.5-1c-3.8-3.8-39.9-41-47.1-48.4a3.6,3.6,0,0,1,0-5.1L46.3,8.4a4.1,4.1,0,0,1,2.6-1.1,3.3,3.3,0,0,1,2.5,1.1l47.8,49a3.8,3.8,0,0,1,1.1,2.4c.1,3.5.2,25.4.2,37.3a3.3,3.3,0,0,1-1,2.5A3.6,3.6,0,0,1,96.9,100.7Zm-38.1-6,36.7.9c0-11.3-.1-30.5-.2-35.1L48.8,12.9,13,47.8C21.7,56.8,53.6,89.6,58.8,94.7Z"/><path class="a" d="M27.1,100.2a2.6,2.6,0,0,1-2.8-2.3A85.2,85.2,0,0,1,40.6,41.7a2.5,2.5,0,0,1,3.5-.5h0a2.5,2.5,0,0,1,.5,3.5A79.5,79.5,0,0,0,31.5,72.8a82.6,82.6,0,0,0-2.2,24.8,2.4,2.4,0,0,1-2.2,2.6Z"/><path class="a" d="M71,74.2h0a2.6,2.6,0,0,1,.2-3.5c8.8-7.9,14.6-17,17.4-27.2,1.9-6.7,4.8-17-.2-21.4-3.3-3-9.5-3.1-16.1-.6a2.4,2.4,0,0,1-3.2-1.2h0a2.5,2.5,0,0,1,1.3-3.4C79,13.6,87,14.1,91.7,18.3c7.3,6.6,4,18.6,1.8,26.6-3.1,11-9.5,21-18.9,29.5A2.5,2.5,0,0,1,71,74.2Z"/><path class="a" d="M73.3,85.1A12.6,12.6,0,0,1,67,83.5a12.1,12.1,0,0,1-5.4-13.7A12.5,12.5,0,0,1,70.7,61a2.6,2.6,0,0,1,3.1,2.5h0a2.6,2.6,0,0,1-2,2.4,7.3,7.3,0,0,0-5.4,5.2,7.2,7.2,0,0,0,3.2,8.1,7.4,7.4,0,0,0,7.4-.3A7.8,7.8,0,0,0,80.4,74a2.6,2.6,0,0,1,2.3-2.1h0a2.6,2.6,0,0,1,2.6,3,12.6,12.6,0,0,1-12,10.2Z"/></svg>