<svg xmlns="http://www.w3.org/2000/svg" xmlns:xlink="http://www.w3.org/1999/xlink" viewBox="0 0 416 289"><defs><style>.a{fill:url(#a);}.b{fill:url(#b);}.c{fill:url(#c);}.d{fill:#d5d5e8;}.e{fill:#000207;}.f{fill:url(#d);}.g{fill:url(#e);}.h{fill:url(#f);}.i{fill:url(#g);}.j{fill:#b1b1c5;}.k{fill:url(#h);}.l{fill:url(#i);}.m{fill:#e7ecf3;}.n{fill:#d4d9e1;}.o{fill:#eff3fa;}.p{fill:url(#j);}.q{fill:url(#k);}.r{fill:url(#l);}.s{fill:#bff177;}.t{fill:url(#m);}.u{fill:url(#n);}.v{fill:url(#o);}.w{fill:#5a9c2c;}.x{fill:url(#p);}.y{fill:url(#q);}.z{fill:url(#r);}</style><linearGradient id="a" x1="491.82" y1="482.98" x2="542.95" y2="484.23" gradientTransform="translate(-285.2 -401.7)" gradientUnits="userSpaceOnUse"><stop offset="0.56" stop-color="#a15d4d"/><stop offset="0.64" stop-color="#c47e6b"/><stop offset="0.78" stop-color="#bfa29b"/></linearGradient><linearGradient id="b" x1="561.22" y1="511.16" x2="537.36" y2="465.92" gradientTransform="translate(-301.4 -374.8)" gradientUnits="userSpaceOnUse"><stop offset="0.33" stop-color="#a15d4d"/><stop offset="0.64" stop-color="#c47e6b"/><stop offset="0.99" stop-color="#bfa29b"/></linearGradient><linearGradient id="c" x1="76.83" y1="39.43" x2="193.56" y2="195.05" gradientUnits="userSpaceOnUse"><stop offset="0.35" stop-color="#fce1d4"/><stop offset="0.47" stop-color="#fcd7cb"/><stop offset="0.57" stop-color="#e8c1b4"/><stop offset="0.81" stop-color="#98776f"/><stop offset="1" stop-color="#c6a297"/></linearGradient><linearGradient id="d" x1="142.01" y1="44.05" x2="172.88" y2="87.77" gradientUnits="userSpaceOnUse"><stop offset="0.14" stop-color="#fce1d4"/><stop offset="0.28" stop-color="#d9b0a3"/><stop offset="0.39" stop-color="#c1998e"/><stop offset="0.63" stop-color="#b7887c"/></linearGradient><linearGradient id="e" x1="200.33" y1="135.2" x2="371.59" y2="94.18" gradientUnits="userSpaceOnUse"><stop offset="0.13" stop-color="#f9d4c8"/><stop offset="0.33" stop-color="#fcd7cb"/><stop offset="0.47" stop-color="#e8c1b4"/><stop offset="0.8" stop-color="#98776f"/><stop offset="0.92" stop-color="#c8b3b4"/></linearGradient><linearGradient id="f" x1="230.18" y1="47.42" x2="275.72" y2="47.42" gradientUnits="userSpaceOnUse"><stop offset="0.33" stop-color="#e6bfb1" stop-opacity="0.6"/><stop offset="0.66" stop-color="#d5ac9f"/><stop offset="0.93" stop-color="#ebc4b7" stop-opacity="0"/></linearGradient><linearGradient id="g" x1="227.26" y1="248.38" x2="435.07" y2="228.1" gradientUnits="userSpaceOnUse"><stop offset="0.13" stop-color="#dbdbed"/><stop offset="0.3" stop-color="#d8d8eb"/><stop offset="0.45" stop-color="#b1b1c5"/><stop offset="0.59" stop-color="#808599"/><stop offset="0.75" stop-color="#787d92"/><stop offset="0.91" stop-color="#adb0c1"/></linearGradient><linearGradient id="h" x1="264.74" y1="220.97" x2="411.48" y2="163.49" gradientUnits="userSpaceOnUse"><stop offset="0.13" stop-color="#dbdbed"/><stop offset="0.47" stop-color="#b1b1c5"/><stop offset="0.63" stop-color="#9094a9"/><stop offset="0.77" stop-color="#82879c" stop-opacity="0"/></linearGradient><linearGradient id="i" x1="296.49" y1="316.47" x2="243.93" y2="227.03" gradientTransform="matrix(0.99, 0.11, -0.11, 0.99, 27.67, -75.94)" gradientUnits="userSpaceOnUse"><stop offset="0.13" stop-color="#cbcfd8"/><stop offset="0.21" stop-color="#f3f7fc"/><stop offset="0.26" stop-color="#f1f5fc"/><stop offset="0.42" stop-color="#dde1e9"/><stop offset="0.59" stop-color="#cbcfd8"/><stop offset="0.66" stop-color="#d6dae2"/><stop offset="0.74" stop-color="#f7fbff"/></linearGradient><linearGradient id="j" x1="128.57" y1="135.1" x2="102.03" y2="115.29" gradientUnits="userSpaceOnUse"><stop offset="0.13" stop-color="#bff177"/><stop offset="0.92" stop-color="#63a230"/></linearGradient><linearGradient id="k" x1="147.77" y1="131.39" x2="124.18" y2="111.26" xlink:href="#j"/><linearGradient id="l" x1="103.31" y1="16.62" x2="119.56" y2="69.79" gradientTransform="matrix(1, 0.01, -0.01, 1, 0.49, -4.28)" gradientUnits="userSpaceOnUse"><stop offset="0.04" stop-color="#bff177"/><stop offset="0.19" stop-color="#7bb444"/><stop offset="0.22" stop-color="#b1e26b"/><stop offset="0.86" stop-color="#80a94d"/></linearGradient><linearGradient id="m" x1="156.48" y1="43.28" x2="161.98" y2="120.81" gradientUnits="userSpaceOnUse"><stop offset="0.08" stop-color="#c9f98a"/><stop offset="0.16" stop-color="#a4d165"/><stop offset="0.66" stop-color="#63a230"/><stop offset="0.85" stop-color="#bff177"/></linearGradient><linearGradient id="n" x1="126.78" y1="81.95" x2="149.69" y2="81.95" xlink:href="#j"/><linearGradient id="o" x1="73.76" y1="64.25" x2="98.45" y2="110.61" gradientUnits="userSpaceOnUse"><stop offset="0.03" stop-color="#bff177"/><stop offset="0.69" stop-color="#63a230"/><stop offset="0.9" stop-color="#bff177"/></linearGradient><linearGradient id="p" x1="24.65" y1="184.62" x2="108.33" y2="257.08" gradientUnits="userSpaceOnUse"><stop offset="0.13" stop-color="#dbdbed"/><stop offset="0.26" stop-color="#d8d8eb"/><stop offset="0.48" stop-color="#a7a8bc"/><stop offset="0.73" stop-color="#a7a8bc"/><stop offset="0.86" stop-color="#e1e0f2"/></linearGradient><linearGradient id="q" x1="54.33" y1="160.71" x2="115.87" y2="213.12" gradientUnits="userSpaceOnUse"><stop offset="0.11" stop-color="#dbdbed"/><stop offset="0.4" stop-color="#b1b1c5"/><stop offset="0.57" stop-color="#aaabbf"/><stop offset="0.82" stop-color="#adaec2"/><stop offset="0.91" stop-color="#c2c3d6"/></linearGradient><linearGradient id="r" x1="118.78" y1="177.47" x2="121.81" y2="180.09" gradientTransform="matrix(0.66, 0.75, -0.75, 0.66, 169.46, 2)" gradientUnits="userSpaceOnUse"><stop offset="0.13" stop-color="#93716a"/><stop offset="0.77" stop-color="#cfbabb"/></linearGradient></defs><title>download</title><rect class="a" x="221.8" y="63.4" width="23" height="37" transform="translate(231.5 -165.3) rotate(70.2)"/><rect class="b" x="232.8" y="88.4" width="23" height="37" transform="translate(262.3 -159.1) rotate(70.2)"/><path class="c" d="M120.3,207.3a92.8,92.8,0,0,1,42.8-35.2c27.6-11,60.1-8.5,85.5-23.9,4.5-2.7,9.1-7.5,7.5-12.4s-8.4-5.8-13.5-7.1c-14.5-3.4-24.5-16.4-32.4-29s-15.9-26.3-29.1-33.2a38.8,38.8,0,0,0-36,.6,56.4,56.4,0,0,0-17.7,15.6c-9.7,13.5-28.8,34.9-69.4,70.8a98,98,0,0,0,28.3,36.4A96.2,96.2,0,0,0,120.3,207.3Z"/><rect class="d" x="158.8" y="4.6" width="76" height="147.59" rx="12"/><rect class="e" x="160.8" y="7.4" width="72" height="142" rx="12"/><path class="f" d="M126.6,63.4a46,46,0,0,1,16.6-18.9,46.8,46.8,0,0,1,24.1-7.2c2.9,0,6,.2,8.6,1.7s4.5,4.2,4.2,7.1-3.2,5.5-5.7,7.4c-14.1,10.3-28.4,20.4-43,30Z"/><path class="g" d="M372.8,180.4c-7.4-19.5-12.6-35.7-16-47-7.3-23.9-23.5-78.1-26.9-84.1-2.2-3.9-5.4-7.3-9.6-8.8s-9.3-.9-12.3,2.3l-1,.9a46,46,0,0,0-6.2-8.3,15.9,15.9,0,0,0-9.2-4.8c-5.8-.6-11.2,3.2-15.4,7.3h-.5a17.5,17.5,0,0,0-17.9-9.5,17.3,17.3,0,0,0-14,14.7l-1,.4a57.1,57.1,0,0,0-18.6-7.5c-8-1.7-10.4-.3-11.4.5-3,2.4-3.7,6.9-3,10s3,5.7,6.6,9,6.5,4.7,8.7,6.4a59.3,59.3,0,0,1,17.5,20.1A37.4,37.4,0,0,1,247,95.5c.4,4.8-.5,9.8-3.3,13.7l-.7.3a43.2,43.2,0,0,1-25.1-3c-3-1.3-5.8-3-8.9-3.8s-6.6-.7-9.2,1.3a9.2,9.2,0,0,0-3.1,7.9,17.9,17.9,0,0,0,3.1,8.2c6.3,9.7,17.4,15.3,28.3,19.2s22.5,6.7,32.5,12.7,15.2,13.3,20.9,22.4c3,4.7,3.6,11,5,16.4l4.7,18.9Z"/><path class="h" d="M243.2,44.9a39.4,39.4,0,0,0,7.8,4.9,3.1,3.1,0,0,0,1.6.6,1.8,1.8,0,0,0,1.7-.5,1.6,1.6,0,0,0,.1-2,3.9,3.9,0,0,0-1.5-1.6,12.5,12.5,0,0,0-9.6-1.6Z"/><path class="i" d="M409.2,244.9a5.5,5.5,0,0,1-2.5,6.2,231.6,231.6,0,0,1-26.4,13.8,246.4,246.4,0,0,1-68.1,19.4,6,6,0,0,1-6.5-4c-7.2-20.5-14.3-40.9-21.4-61.4l99-30a184,184,0,0,1,25.9,56Z"/><path class="j" d="M385.3,190.9l-114,37c-.4-8.6-.7-17.3-1-26l100-30.7a4.9,4.9,0,0,1,5.9,2.4Z"/><path class="k" d="M381.3,189.9l-110,38c1.1-8.5,2.3-17,3.5-25.5l96.5-29.5C374.6,178.6,377.9,184.3,381.3,189.9Z"/><path class="l" d="M311.5,239.1c-1.4-.6-16.6-7.6-20-24.8s8.3-29.6,9.3-30.6l.2-.3a30.4,30.4,0,0,0-20.6-8.9,29.8,29.8,0,0,0-21,8.1l-1.6-.2c-9.1-2.1-19-2.6-27.3,1.5s-13.9,11.9-16.2,20.7-1.4,18,1.3,26.6,7.2,16.6,12.1,24.2a61.1,61.1,0,0,0,7.1,9.6l28.1,4.5a15.1,15.1,0,0,1,3.7-.6c4.3-.3,8.5,1.5,12.7,2.9s8.7,2.4,12.7.8,5.9-4.4,8-7.5a83.4,83.4,0,0,0,11.6-25.6Z"/><path class="m" d="M255.3,185.2a28.4,28.4,0,0,1,20.3-7.9,28.7,28.7,0,0,1,20,8.7l-.2.2c-1,1-12.5,13-9.1,30s17.9,23.7,19.3,24.3v.4A81.1,81.1,0,0,1,294.4,266c-2,3-4.3,6-7.7,7.3s-8.3.6-12.3-.8-8.1-3-12.3-2.8-9.5,3.2-14.5,3.7-9.9-1.8-13.8-5.1-6.7-7.4-9.3-11.7c-4.7-7.4-9.1-15.3-11.7-23.7s-3.5-17.6-1.2-26.1,7.8-16.4,15.7-20.3S245,183,253.7,185Z"/><path class="n" d="M273.3,148l-5.8-.6h-.1a28.8,28.8,0,0,0-14.3,12.9,29.3,29.3,0,0,0-3.2,18.9l.3.2a21.5,21.5,0,0,0,17.1-7.3c3.5-4,4.7-8.5,5.6-11.6a34.9,34.9,0,0,0,1-12.2Z"/><path class="o" d="M265.5,165.3a30.5,30.5,0,0,0,2.9-17.8h-1a28.8,28.8,0,0,0-14.3,12.9,29.3,29.3,0,0,0-3.2,18.9h.9A30.4,30.4,0,0,0,265.5,165.3Z"/><path class="p" d="M117.4,137.1l-7.1,2.8-3-29,11-2c.6,8,1.2,16,1.7,23.9A4.2,4.2,0,0,1,117.4,137.1Z"/><path class="q" d="M140.4,135.1l-7.1,2.8-3-29,11-2c.6,8,1.2,16,1.7,23.9A4.2,4.2,0,0,1,140.4,135.1Z"/><path class="r" d="M125,19.9a53.8,53.8,0,0,0,4.7-8.8,1.7,1.7,0,0,0-1.5-2.4l-5.7-.5h0a7.5,7.5,0,0,0-1.8,1.4h0l-5.1,6.9-1.8-.2L90.9,27.1a30.8,30.8,0,0,0-5.4,24l55.1-7.2A31.1,31.1,0,0,0,125,19.9Z"/><path class="s" d="M117.4,20.5l6.6-10a1.5,1.5,0,0,0-1.2-2.4h-2.2a2.4,2.4,0,0,0-1.6.7c-2,2.5-3.9,5-5.9,7.4a51.3,51.3,0,0,0-7.1.2,37.1,37.1,0,0,0-7.5,1.4,26.8,26.8,0,0,0-4.7,1.7l-4.2-3.1a7.7,7.7,0,0,0-2.8-1.2,13.9,13.9,0,0,0-6.3.3,10.2,10.2,0,0,0-2.1.8,1.7,1.7,0,0,0-.5,2.7l7.2,7.4A31,31,0,0,0,78.5,52l55.1-7.2A31.2,31.2,0,0,0,117.4,20.5Z"/><path class="s" d="M113.1,136a3.9,3.9,0,0,1-1.8,3.7,7.6,7.6,0,0,1-4,1.2h-.7a7.4,7.4,0,0,1-6.6-6.7l-2.7-25.3,13-1Z"/><path class="s" d="M136.1,134a3.9,3.9,0,0,1-1.8,3.7,7.6,7.6,0,0,1-4,1.2h-.7a7.4,7.4,0,0,1-6.6-6.7l-2.7-25.3,13-1Z"/><path class="t" d="M165.1,100.7l-5.8,3.2q-5.1-27.5-10-55a17.4,17.4,0,0,1,8-1h0a5.1,5.1,0,0,1,4.4,4.4c2.1,14.4,4.1,28.7,6.1,43.1A5.3,5.3,0,0,1,165.1,100.7Z"/><path class="u" d="M142,55.1a6.4,6.4,0,0,0-3.2-3.7h-.4l-11.6,2.2q5.7,29.6,11.5,59.1l8.1-2.8a4.8,4.8,0,0,0,3.2-5.4Z"/><path class="v" d="M102.3,104.9l-26,6L68.8,60.4l24.5-1.5Z"/><path class="s" d="M140,112.1l-50,2.7a3,3,0,0,1-3.1-2.6L79.7,62.9a3,3,0,0,1,2.6-3.4l53-7.6,7.5,56.8A2.9,2.9,0,0,1,140,112.1Z"/><path class="s" d="M81.4,104.8a6,6,0,0,1-5.6,6.9h-.2a6.5,6.5,0,0,1-6.3-5.7L64.5,66v-.3a5.8,5.8,0,0,1,11.2-1.6.8.8,0,0,0,.1.4Z"/><path class="s" d="M162.8,97.5a6.3,6.3,0,0,1-3.8,6.8,7.6,7.6,0,0,1-2.7.6,9.4,9.4,0,0,1-7.7-3.2,5.3,5.3,0,0,1-1.5-3.3l-5.5-40.7a7.8,7.8,0,0,1,6-8.7H149a7.8,7.8,0,0,1,7.7,6.7C158.7,69.6,160.7,83.6,162.8,97.5Z"/><circle class="w" cx="91.7" cy="37.2" r="4" transform="translate(-5.1 16.8) rotate(-10.2)"/><circle class="w" cx="114.7" cy="33.5" r="4" transform="translate(-4.1 20.8) rotate(-10.2)"/><path class="x" d="M82.2,260a15.2,15.2,0,0,1-15.9,2.8,105.1,105.1,0,0,1-59-59.3,10.2,10.2,0,0,1,1.6-10.2,149.8,149.8,0,0,1,17.4-17.4,139.3,139.3,0,0,1,22-15l69,54a162.2,162.2,0,0,1-23,33A153.2,153.2,0,0,1,82.2,260Z"/><path class="y" d="M114.3,219.9a118.9,118.9,0,0,1-36-17,121.3,121.3,0,0,1-35.5-38.5,64.7,64.7,0,0,1,9-10,68.5,68.5,0,0,1,8.8-6.7,4.5,4.5,0,0,1,6.6,2,93.4,93.4,0,0,0,57.1,51.6,1.6,1.6,0,0,1,.9,2.4q-2.4,4.2-5.4,8.7C117.9,215.1,116.1,217.6,114.3,219.9Z"/><ellipse class="z" cx="114.8" cy="210.4" rx="5" ry="2" transform="translate(-121.8 172.1) rotate(-52.2)"/></svg>