<svg xmlns="http://www.w3.org/2000/svg" xmlns:xlink="http://www.w3.org/1999/xlink" viewBox="0 0 368 321"><defs><style>.a{fill:url(#a);}.b{fill:#37475b;}.c{fill:#d4eeff;}.d{fill:#bfe0f8;}.e{fill:url(#b);}.f{fill:#aeda67;}.g{fill:url(#c);}.h{fill:url(#d);}.i{fill:#fff;}.j{fill:url(#e);}.k{fill:url(#f);}.l{fill:#a0de7b;}.m{fill:#efeb92;}.n{fill:#fb8798;}.o{fill:#e7edf7;}.p{fill:#e3edfe;}.q{fill:url(#g);}.r{fill:url(#h);}.s{fill:#4bb6dc;}.t{fill:url(#i);}.u{fill:url(#j);}.v{fill:url(#k);}.w{fill:#39a5cc;}.x{fill:url(#l);}.y{fill:url(#m);}.z{fill:url(#n);}.aa{fill:url(#o);}.ab{fill:url(#p);}</style><linearGradient id="a" x1="196.58" y1="266.66" x2="196.58" y2="37.52" gradientUnits="userSpaceOnUse"><stop offset="0.04" stop-color="#c9d4e4"/><stop offset="0.11" stop-color="#dfe9fa"/></linearGradient><linearGradient id="b" x1="324.55" y1="94.04" x2="37.84" y2="-77.18" gradientUnits="userSpaceOnUse"><stop offset="0.3" stop-color="#376b89"/><stop offset="0.79" stop-color="#bfe0f8"/></linearGradient><linearGradient id="c" x1="93.92" y1="236.91" x2="93.92" y2="116.26" gradientUnits="userSpaceOnUse"><stop offset="0" stop-color="#b1dc6a"/><stop offset="0.48" stop-color="#719c37"/><stop offset="0.98" stop-color="#b1dc6a"/></linearGradient><linearGradient id="d" x1="90.52" y1="211.09" x2="32.23" y2="127.1" gradientUnits="userSpaceOnUse"><stop offset="0" stop-color="#afdb68"/><stop offset="0.81" stop-color="#b1dc6a"/></linearGradient><linearGradient id="e" x1="88.96" y1="227.7" x2="88.96" y2="125.47" gradientUnits="userSpaceOnUse"><stop offset="0" stop-color="#aeda67"/><stop offset="0.48" stop-color="#cff693"/><stop offset="1" stop-color="#b1dc6a"/></linearGradient><linearGradient id="f" x1="44.44" y1="230.08" x2="44.44" y2="119.39" xlink:href="#c"/><linearGradient id="g" x1="367.41" y1="298.13" x2="47.95" y2="300.16" gradientUnits="userSpaceOnUse"><stop offset="0.04" stop-color="#c9d4e4"/><stop offset="0.71" stop-color="#dfe9fa"/><stop offset="0.98" stop-color="#f2f6fc"/></linearGradient><linearGradient id="h" x1="281.81" y1="272.76" x2="317.44" y2="272.93" gradientUnits="userSpaceOnUse"><stop offset="0.1" stop-color="#2a8fb8"/><stop offset="0.61" stop-color="#54bce1"/><stop offset="0.87" stop-color="#90d7f6"/></linearGradient><linearGradient id="i" x1="108.8" y1="272.9" x2="72.88" y2="273.13" xlink:href="#h"/><linearGradient id="j" x1="95.35" y1="277.92" x2="71.14" y2="278.08" gradientUnits="userSpaceOnUse"><stop offset="0.1" stop-color="#2a8fb8"/><stop offset="0.86" stop-color="#54bce1"/></linearGradient><linearGradient id="k" x1="109.22" y1="283" x2="70.64" y2="283.24" xlink:href="#h"/><linearGradient id="l" x1="74.48" y1="287.71" x2="222.51" y2="287.71" gradientUnits="userSpaceOnUse"><stop offset="0.1" stop-color="#2a8fb8"/><stop offset="0.61" stop-color="#54bce1"/></linearGradient><linearGradient id="m" x1="92.35" y1="287.8" x2="68.74" y2="287.95" xlink:href="#h"/><linearGradient id="n" x1="297.57" y1="278.82" x2="321.39" y2="275.81" xlink:href="#j"/><linearGradient id="o" x1="274.06" y1="282.65" x2="312.89" y2="284.22" gradientUnits="userSpaceOnUse"><stop offset="0.1" stop-color="#2a8fb8"/><stop offset="0.87" stop-color="#90d7f6"/></linearGradient><linearGradient id="p" x1="298.39" y1="289.04" x2="321.53" y2="285.67" xlink:href="#o"/></defs><title>video</title><rect class="a" x="45.7" y="37.5" width="301.7" height="229.14" rx="21"/><rect class="b" x="50.9" y="43.6" width="291.3" height="217" rx="14.2"/><path class="c" d="M326.8,208.1,116.2,186.5a5.6,5.6,0,0,1-5-6L123.5,24.8a12.1,12.1,0,0,1,12.6-11L337.3,24.1c6.2.3,10.9,5.3,10.4,11.2L333.5,202.9A6,6,0,0,1,326.8,208.1Z"/><path class="d" d="M324.7,206,114.3,184.6a5.6,5.6,0,0,1-5-6L121.6,23a12.1,12.1,0,0,1,12.6-11L335.1,22.2c6.3.3,10.9,5.3,10.5,11.1L331.4,200.9A5.9,5.9,0,0,1,324.7,206Z"/><path class="e" d="M335.1,22.2,134.2,12a12.1,12.1,0,0,0-12.6,11l-2.2,28.3L342.8,65.5l2.8-32.2C346,27.5,341.4,22.5,335.1,22.2Z"/><ellipse class="f" cx="66.6" cy="176.6" rx="51.7" ry="60.3"/><path class="g" d="M68.6,116.3h-1c28.1.6,50.7,27.4,50.7,60.3s-22.6,59.7-50.7,60.3h1c28.5,0,51.7-27,51.7-60.3S97.1,116.3,68.6,116.3Z"/><ellipse class="h" cx="66.6" cy="176.6" rx="45.8" ry="51.1"/><path class="i" d="M81.6,167.6,63.3,191.7a2.3,2.3,0,0,1-1.8.9h0a2.3,2.3,0,0,1-1.6-.6L48.4,181.2a4.3,4.3,0,0,1-.3-6.2l.5-.4h0a4.2,4.2,0,0,1,5.3.2l6.7,5.8,14.5-18.5a4.3,4.3,0,1,1,6.5,5.5Z"/><path class="j" d="M66.6,125.5h-1c24.8.6,44.8,23.2,44.8,51.1s-20,50.5-44.8,51.1h1c25.3,0,45.8-22.9,45.8-51.1S91.9,125.5,66.6,125.5Z"/><path class="k" d="M23.8,176.6c0-27.7,19.7-50.2,44.3-51.1H66.6c-25.3,0-45.8,22.9-45.8,51.1s20.5,51.1,45.8,51.1h1.5C43.5,226.8,23.8,204.3,23.8,176.6Z"/><circle class="l" cx="277.5" cy="39.9" r="8"/><circle class="m" cx="302.6" cy="41.6" r="8"/><circle class="n" cx="326.6" cy="43.3" r="8"/><rect class="o" x="140.7" y="26.6" width="105.7" height="15" rx="7.5" transform="translate(2 -10) rotate(3)"/><path class="p" d="M342,309,44.6,307.2a11,11,0,0,1-10.3-14.7c2.1-6,4.2-12,6.4-18a16.4,16.4,0,0,1,15.5-10.9H333.6a16.5,16.5,0,0,1,16.3,13.8l3.1,18.8A11,11,0,0,1,342,309Z"/><path class="q" d="M352,290.3a11,11,0,0,1-10,6.2L44.6,294.7a10.8,10.8,0,0,1-9.3-5.2c-.3,1-.7,2-1,3a11,11,0,0,0,10.3,14.7L342,309a11,11,0,0,0,11-12.8C352.6,294.3,352.3,292.3,352,290.3Z"/><path class="r" d="M320.5,273.9l-43.4-4.5-3.9.7a1.8,1.8,0,0,0-1,1.1l-.2,1c-.4,2,1.5,3.7,4.2,3.7l44.5.3v-.3Z"/><path class="s" d="M319.8,269.5H277.3c-1.5,0-2.7,1.2-2.3,2.1l.6,1.2c.2.7,1.1,1.1,2.1,1.1l42.8.2Z"/><path class="t" d="M119.9,272.3a8.8,8.8,0,0,0-.2-1.7l-2.2-1h-2.4l-43.9,4.5-.4,1.7.2.6,44.5-.4C118.2,276,120.2,274.3,119.9,272.3Z"/><path class="s" d="M114.9,269.6H72.2l-1.1,4.4,43.1-.3a2.4,2.4,0,0,0,2.2-1.1l.6-1.1C117.5,270.7,116.4,269.6,114.9,269.6Z"/><path class="u" d="M102.8,277.5l-.3-1.7-1.6-.9H99.2l-29.2,4-.3,1.3.2.8h30A2.7,2.7,0,0,0,102.8,277.5Z"/><path class="s" d="M99.1,274.9H71L70,279H98.9a1.4,1.4,0,0,0,1.4-1,4.9,4.9,0,0,0,.4-1.1A1.6,1.6,0,0,0,99.1,274.9Z"/><path class="v" d="M121,282.4l-.5-.9a2.1,2.1,0,0,0-1.3-1.1l-4.1-.6-46.3,4.3-.4,1.7.2.6,48.6-.4C120.2,285.9,121.9,284.3,121,282.4Z"/><path class="s" d="M114.9,279.8H70.7l-1,.2-1,4.1,46.5-.3c1.1,0,1.9-.4,2.1-1l.3-1.1C117.9,280.9,116.4,279.8,114.9,279.8Z"/><path class="w" d="M157.9,273.9h-35l.6-2.3a1.5,1.5,0,0,1,1.6-1.1h29.2a2.1,2.1,0,0,1,1.5.7Z"/><polygon class="s" points="158 275.8 123.2 275.9 122.9 273.8 157.9 273.8 158 275.8"/><path class="w" d="M195.1,273.8h-35c.3-.8.6-1.6.8-2.3a1.8,1.8,0,0,1,1.7-1.1h29.2a1.9,1.9,0,0,1,1.5.8Z"/><polygon class="s" points="195 275.8 160.2 275.8 160.1 273.8 195.1 273.8 195 275.8"/><path class="w" d="M232.3,273.8h-35c.4-.7.7-1.5,1.1-2.3a2,2,0,0,1,1.7-1.1h29.2a1.6,1.6,0,0,1,1.4.8Z"/><polygon class="s" points="232.1 275.8 197.2 275.8 197.3 273.8 232.3 273.7 232.1 275.8"/><path class="w" d="M269.6,273.8H234.5l1.3-2.3a2,2,0,0,1,1.8-1.1h29.2a1.7,1.7,0,0,1,1.4.7Z"/><polygon class="s" points="269.1 275.8 234.3 275.8 234.6 273.7 269.6 273.7 269.1 275.8"/><path class="w" d="M157.4,282.9H123.1l.6-2.2a1.5,1.5,0,0,1,1.6-1.1h28.5a2,2,0,0,1,1.5.7Z"/><polygon class="s" points="157.5 284.8 123.4 284.9 123.1 282.9 157.3 282.9 157.5 284.8"/><path class="w" d="M193.8,282.9H159.5a18,18,0,0,0,.8-2.1,1.8,1.8,0,0,1,1.7-1.1h28.5a1.5,1.5,0,0,1,1.4.7Z"/><polygon class="s" points="193.7 284.8 159.6 284.8 159.5 282.9 193.8 282.8 193.7 284.8"/><path class="w" d="M230.2,282.9H195.9a14.7,14.7,0,0,0,1-2.2,2,2,0,0,1,1.8-1h28.5a1.6,1.6,0,0,1,1.4.8Z"/><polygon class="s" points="230 284.8 195.9 284.8 195.9 282.8 230.2 282.8 230 284.8"/><path class="w" d="M266.6,282.9H232.4a22.6,22.6,0,0,1,1.1-2.2,2.4,2.4,0,0,1,1.9-1.1h28.5a1.4,1.4,0,0,1,1.3.7Z"/><polygon class="s" points="266.2 284.8 232.1 284.8 232.4 282.8 266.6 282.8 266.2 284.8"/><path class="w" d="M139.7,278H105l.6-2.3a1.4,1.4,0,0,1,1.5-1h28.8a2.1,2.1,0,0,1,1.6.8Z"/><polygon class="s" points="139.9 279.9 105.4 279.9 105 277.9 139.7 277.9 139.9 279.9"/><path class="w" d="M176.5,277.9H141.9c.2-.8.5-1.5.7-2.3a1.7,1.7,0,0,1,1.6-1.1h28.9a2.1,2.1,0,0,1,1.5.7Z"/><polygon class="s" points="176.5 279.9 142.1 279.9 141.9 277.9 176.5 277.9 176.5 279.9"/><path class="w" d="M213.4,277.9H178.7a21.4,21.4,0,0,1,1-2.2,1.6,1.6,0,0,1,1.6-1.1h28.9a1.7,1.7,0,0,1,1.5.7Z"/><polygon class="s" points="213.2 279.8 178.7 279.9 178.7 277.9 213.4 277.8 213.2 279.8"/><path class="w" d="M250.2,277.9H215.6c.4-.7.7-1.5,1.1-2.2a1.9,1.9,0,0,1,1.8-1.1h28.9a1.6,1.6,0,0,1,1.4.8Z"/><polygon class="s" points="249.9 279.8 215.4 279.8 215.6 277.8 250.3 277.8 249.9 279.8"/><path class="w" d="M287.1,277.9H252.4l1.4-2.3a2.3,2.3,0,0,1,1.8-1.1h29a1.6,1.6,0,0,1,1.3.8Z"/><polygon class="s" points="286.6 279.8 252.1 279.8 252.5 277.8 287.1 277.8 286.6 279.8"/><path class="x" d="M250.3,286.9a3.5,3.5,0,0,0-3.4-2.1H106.1a3.2,3.2,0,0,0-3.5,3,10.3,10.3,0,0,0,.3,2.8H250.6A15,15,0,0,0,250.3,286.9Z"/><path class="y" d="M99.6,287.4l-.3-1.6-1.6-.9H96.1l-28.4,3.8-.3,1.3v.7H96.8A2.7,2.7,0,0,0,99.6,287.4Z"/><path class="s" d="M96,284.9H68.6l-.9,3.9H95.8a1.4,1.4,0,0,0,1.4-1l.3-1.1A1.5,1.5,0,0,0,96,284.9Z"/><path class="z" d="M321.2,278.6l-28.7-3.9h-1.6l-1.7.9c-.1.6-.3,1.2-.4,1.7a2.6,2.6,0,0,0,2.6,3.5h30v-.3Z"/><path class="s" d="M320.6,274.7H292.7c-1,0-2,1.1-1.7,2a3.6,3.6,0,0,0,.2,1,1.4,1.4,0,0,0,1.4,1.1h28.7Z"/><path class="aa" d="M322,283.7l-47.2-3.9-3.9.6a1.8,1.8,0,0,0-1.2,1l-.4.8c-.8,1.8.8,3.3,3.6,3.3l49.4.5h.1Z"/><path class="s" d="M321.4,279.7h-1.1l-45.3.2c-1.4,0-2.8,1-2.5,1.8l.3,1a2,2,0,0,0,2,1l47.2.2Z"/><path class="ab" d="M322.8,288.5l-27.9-3.8h-1.6l-1.7.9-.4,1.6a2.5,2.5,0,0,0,2.5,3.3h29.4Z"/><path class="s" d="M322.2,284.7H295a1.7,1.7,0,0,0-1.7,1.9l.3,1a1.2,1.2,0,0,0,1.3,1h27.9Z"/><path class="w" d="M287.8,288.8H253c.4-.8.9-1.5,1.3-2.2a2.3,2.3,0,0,1,1.9-1.1h29.1a1.4,1.4,0,0,1,1.3.7Z"/><polygon class="s" points="287.3 290.7 252.7 290.5 253 288.6 287.9 288.7 287.3 290.7"/></svg>