<svg xmlns="http://www.w3.org/2000/svg" viewBox="0 0 108 95"><defs><style>.a{fill:#5940f1;}</style></defs><title>galerry</title><path class="a" d="M94,17.5H84.5a17.6,17.6,0,0,0-31,0H14A6.5,6.5,0,0,0,7.5,24V72A6.5,6.5,0,0,0,14,78.5H79L86.5,86A2.5,2.5,0,0,0,90,82.5l-4-4h8a6.5,6.5,0,0,0,6.5-6.5V24A6.5,6.5,0,0,0,94,17.5ZM68.5,13.3H69a12.5,12.5,0,0,1,9.4,4.2H59.6A12.2,12.2,0,0,1,68.5,13.3ZM14,73.5A1.5,1.5,0,0,1,12.5,72L42,41.6,74,73.5ZM95.5,72A1.5,1.5,0,0,1,94,73.5H81L69.4,61.9,75,55.7,87.5,68.9A2.5,2.5,0,0,0,91,69a2.4,2.4,0,0,0,.1-3.5L77.7,51.2A3.9,3.9,0,0,0,75,50.1a3.6,3.6,0,0,0-2.7,1.2l-6.4,7.1L44.5,37A3.4,3.4,0,0,0,42,35.9h0A3.3,3.3,0,0,0,39.5,37l-27,27.8V24A1.5,1.5,0,0,1,14,22.5H81.2a10.5,10.5,0,0,1,.5,3,12.7,12.7,0,0,1-24.6,5,2.5,2.5,0,0,0-2.7-1.6,2.6,2.6,0,0,0-2,3.3A17.8,17.8,0,0,0,69,43.7h.7a17.7,17.7,0,0,0,17-18.4,12.6,12.6,0,0,0-.4-2.8H94A1.5,1.5,0,0,1,95.5,24Z"/></svg>