<svg xmlns="http://www.w3.org/2000/svg" xmlns:xlink="http://www.w3.org/1999/xlink" viewBox="0 0 32 32"><defs><style>.a{fill:none;}.b{clip-path:url(#a);}.c{fill:url(#b);}.d{fill:url(#c);}.e{fill:url(#d);}.f{fill:#5940f1;}.g{fill:#fff;}</style><clipPath id="a"><rect class="a" x="-1" y="-35" width="32" height="32"/></clipPath><linearGradient id="b" x1="-9.27" y1="-37.97" x2="14.41" y2="-5.2" gradientUnits="userSpaceOnUse"><stop offset="0" stop-color="#24b3f0"/><stop offset="1" stop-color="#b62edb"/></linearGradient><linearGradient id="c" x1="-7.75" y1="-39.07" x2="15.93" y2="-6.3" xlink:href="#b"/><linearGradient id="d" x1="-8.51" y1="-38.52" x2="15.17" y2="-5.75" xlink:href="#b"/></defs><title>logosmall</title><g class="b"><polygon class="c" points="15 5.7 34.3 -4.3 34 -5 15 4.8 -4 -5 -4.3 -4.3 15 5.7 15 5.8 15 5.7 15 5.8 15 5.7"/><polygon class="d" points="15 1.6 15 1.6 15 1.6 15 1.6 34.3 -7.5 34 -8.2 15 0.7 -4 -8.2 -4.3 -7.5 15 1.6 15 1.6"/><polygon class="e" points="15 3.7 15 3.7 15 3.7 15 3.7 34.3 -5.9 34 -6.6 15 2.8 -4 -6.6 -4.3 -5.9 15 3.7 15 3.7"/></g><rect class="f" width="32" height="32"/><rect class="a" width="32" height="32"/><path class="g" d="M25.1,20.1l-2.2-2.9c-.1-.2-.3-.2-.5-.1l-5.8,4.5,2.1-3V10.1H23a.5.5,0,0,0,.5-.4V5.1a.5.5,0,0,0-.5-.4H9a.5.5,0,0,0-.5.4V9.7a.5.5,0,0,0,.5.4h7.7l-3.4,1.2v8.5L9.6,17.1c-.2-.1-.4-.1-.5.1L6.9,20.1a.3.3,0,0,0,.1.5l9,6.7h0l9-6.7A.3.3,0,0,0,25.1,20.1Z"/></svg>