<svg xmlns="http://www.w3.org/2000/svg" viewBox="0 0 72 108"><defs><style>.a{fill:none;}.b{fill:#5940f1;}</style></defs><title>power</title><polygon class="a" points="36 54 36 54 36 54 36 54"/><path class="b" d="M64.3,43.8a3.9,3.9,0,0,0-2.9-1.3H46a2.5,2.5,0,0,0,0,5H59L38.5,89.2V58a2.5,2.5,0,0,0-5,0v2.5H13L33.5,18.8V44a2.5,2.5,0,0,0,5,0V11.5a3.4,3.4,0,0,0-2.6-3.2,3.4,3.4,0,0,0-3.7,1.8L7.4,60.6a3.4,3.4,0,0,0,.3,3.6,3.9,3.9,0,0,0,2.9,1.3H33.5v31a3.4,3.4,0,0,0,2.6,3.2,3.4,3.4,0,0,0,3.7-1.8L64.6,47.4A3.4,3.4,0,0,0,64.3,43.8ZM36.7,12.3ZM35.3,95.7Z"/></svg>