<svg xmlns="http://www.w3.org/2000/svg" viewBox="0 0 108 108"><defs><style>.a{fill:#5940f1;}</style></defs><title>link</title><path class="a" d="M98.4,21.3A25.7,25.7,0,0,0,63.9,9.2L44.6,18.6A25.5,25.5,0,0,0,30.7,36.7a2.3,2.3,0,0,0,1.8,2.8h0a3.1,3.1,0,0,0,3.2-2.2A21.3,21.3,0,0,1,42.4,26a18.6,18.6,0,0,1,4.4-2.9l19.3-9.4a20.2,20.2,0,0,1,9-2.1,21.9,21.9,0,0,1,11.7,3.5,25,25,0,0,1,3.9,3.4,20.8,20.8,0,0,1-6.5,32.4l-8.8,4.4a.3.3,0,0,1-.1-.2A25.7,25.7,0,0,0,40.9,43.2L21.6,52.6A25.7,25.7,0,0,0,9.8,86.9,25.3,25.3,0,0,0,24.5,100a27.4,27.4,0,0,0,8.4,1.4,26.3,26.3,0,0,0,11.3-2.6l19.2-9.4a25.6,25.6,0,0,0,14.1-19,2.5,2.5,0,0,0-2.9-2.9h0a2.6,2.6,0,0,0-2,2.1A20.5,20.5,0,0,1,61.2,84.9L42.4,94.1a20.6,20.6,0,0,1-28.1-9.3,20.8,20.8,0,0,1,9.5-27.7l8.9-4.4c0,.1,0,.2.1.2A25.3,25.3,0,0,0,47.5,66a27.4,27.4,0,0,0,8.4,1.4,26.3,26.3,0,0,0,11.3-2.6l18.7-9.1C98.7,49.5,104.5,34.1,98.4,21.3Zm-33,38.8a20.6,20.6,0,0,1-28.1-9.3.3.3,0,0,1-.1-.2l5.9-2.9a20.2,20.2,0,0,1,9-2.1,22.5,22.5,0,0,1,6.8,1.1A20.9,20.9,0,0,1,70.8,57.2c0,.1,0,.2.1.2Z"/></svg>