<svg xmlns="http://www.w3.org/2000/svg" viewBox="0 0 108 108"><defs><style>.a{fill:#5940f1;}</style></defs><title>music</title><path class="a" d="M100.5,29h0V11.3a4.4,4.4,0,0,0-5.3-4.2L45,17.9a5.8,5.8,0,0,0-4.7,5.8v6.2l-5.6,1.2A2.5,2.5,0,0,0,32.9,34h0a2.5,2.5,0,0,0,2.9,2l4.6-1v4l.3,40.4A16.8,16.8,0,0,1,37.9,89c-.7,1.1-4.9,6.9-11.4,7.1S12,89.4,12,81s6.5-15,14.5-15a13.2,13.2,0,0,1,3.9.6,2.4,2.4,0,0,0,2.8-1.4,2.5,2.5,0,0,0-1.5-3.4,18.1,18.1,0,0,0-5.2-.7A19.7,19.7,0,0,0,7.1,81c0,11.1,8.7,20,19.4,20s19.4-8.9,19.4-20c0-.6-.4-42-.4-42V34l40-8.5a2.5,2.5,0,1,0-1-4.9l-39,8.3V23.6a1,1,0,0,1,.7-.9L95.5,12.1V48.3l.2,21.1A16.8,16.8,0,0,1,92.9,79c-.7,1.1-4.9,6.9-11.4,7.1S67,79.4,67,71s6.5-15,14.5-15a13.2,13.2,0,0,1,3.9.6,2.4,2.4,0,0,0,2.8-1.4,2.5,2.5,0,0,0-1.5-3.4,18.1,18.1,0,0,0-5.2-.7A19.7,19.7,0,0,0,62.1,71c0,11.1,8.7,20,19.4,20s19.4-8.9,19.4-20C100.9,70.4,100.5,29,100.5,29Z"/></svg>