<svg version="1.2" xmlns="http://www.w3.org/2000/svg" viewBox="0 0 67 71" width="67" height="71">
	<title>infoarrow-svg</title>
	<style>
		.s0 { fill: #ce00ff } 
	</style>
	<path id="Layer" class="s0" d="m2.7 44q1.5 1.9 2.8 3.9 1.3 2.1 2.4 4.3 1 2.2 1.8 4.5 0.7 2.3 1.2 4.7c5.4-28.2 23.4-57.7 54.1-60.8 1.4-0.1 1.4 2.1 0 2.3-30.7 3.1-48.3 34.4-52.6 62.3q1.8-2.1 3.7-4.1 1.9-1.9 4-3.8 2-1.8 4.1-3.6 2.2-1.7 4.4-3.3c1.1-0.8 2.2 1 1.1 1.8q-2.6 1.9-5.1 3.9-2.4 2.1-4.7 4.3-2.4 2.2-4.5 4.6-2.1 2.4-4.1 4.9c-0.6 0.8-2 0.6-1.9-0.5q0.1-3.2-0.4-6.4-0.5-3.2-1.5-6.3-1.1-3.1-2.7-5.9-1.5-2.8-3.6-5.3c-0.8-1 0.6-2.5 1.5-1.5z"/>
</svg>